<svg xmlns="http://www.w3.org/2000/svg"
        width="24"
        height="24"
        viewBox="0 0 24 24">
    <path
        d="m23,10.947l-5,-0.01c-0.55,0 -1,0.45 -1,1l0,9c0,0.55 0.45,1 1,1l5,0c0.55,0 1,-0.45 1,-1l0,-9c0,-0.55 -0.45,-0.99 -1,-0.99zM23,19.937l-5,0l0,-7l5,0l0,7zM20,1.937l-18,0c-1.11,0 -2,0.89 -2,2l0,12c0,1.1 0.89,2 2,2l7,0l0,2l-2,0l0,2l8,0l0,-2l-2,0l0,-2l2,0l0,-2l-13,0l0,-12l18,0l0,5l2,0l0,-5c0,-1.11 -0.9,-2 -2,-2z"
        fill="#bababa"/>
    <path
        d="m9.082,11.049l0,-5.076l3.351,5.076l-3.351,0z"
        fill="#bababa"/>
    <path
        d="m9.087,10.442l2.434,0l-2.434,1.727l0,-1.727z"
        fill="#bababa"/>
    <path
        d="m10.555,10.066l1.19,2.562l-0.774,0.359l-1.19,-2.562l0.774,-0.359z"
        fill="#bababa"/>
</svg>
